<?xml version="1.0" encoding="UTF-8" standalone="no"?>
<!-- Created with Inkscape (http://www.inkscape.org/) -->

<svg
   xmlns:dc="http://purl.org/dc/elements/1.1/"
   xmlns:cc="http://creativecommons.org/ns#"
   xmlns:rdf="http://www.w3.org/1999/02/22-rdf-syntax-ns#"
   xmlns:svg="http://www.w3.org/2000/svg"
   xmlns="http://www.w3.org/2000/svg"
   xmlns:sodipodi="http://sodipodi.sourceforge.net/DTD/sodipodi-0.dtd"
   xmlns:inkscape="http://www.inkscape.org/namespaces/inkscape"
   width="51.726048mm"
   height="70.010796mm"
   viewBox="0 0 51.726048 70.010796"
   version="1.1"
   id="svg8"
   inkscape:version="0.92.4 (5da689c313, 2019-01-14)"
   sodipodi:docname="icono-uco.svg"
   inkscape:export-filename="/home/sergio/Dropbox/Compartidas/Aula de Software Libre/Grafismo/otros/icono-uco.png"
   inkscape:export-xdpi="23.219276"
   inkscape:export-ydpi="23.219276">
  <defs
     id="defs2" />
  <sodipodi:namedview
     id="base"
     pagecolor="#ffffff"
     bordercolor="#666666"
     borderopacity="1.0"
     inkscape:pageopacity="0.0"
     inkscape:pageshadow="2"
     inkscape:zoom="2.8"
     inkscape:cx="85.74606"
     inkscape:cy="136.93548"
     inkscape:document-units="mm"
     inkscape:current-layer="layer1"
     showgrid="false"
     fit-margin-top="0"
     fit-margin-left="0"
     fit-margin-right="0"
     fit-margin-bottom="0"
     inkscape:window-width="2560"
     inkscape:window-height="1408"
     inkscape:window-x="2560"
     inkscape:window-y="0"
     inkscape:window-maximized="1" />
  <metadata
     id="metadata5">
    <rdf:RDF>
      <cc:Work
         rdf:about="">
        <dc:format>image/svg+xml</dc:format>
        <dc:type
           rdf:resource="http://purl.org/dc/dcmitype/StillImage" />
        <dc:title></dc:title>
      </cc:Work>
    </rdf:RDF>
  </metadata>
  <g
     inkscape:label="Layer 1"
     inkscape:groupmode="layer"
     id="layer1"
     transform="translate(-74.688311,-77.692068)">
    <path
       style="fill:#8c8c8c;fill-opacity:1;stroke-width:0.26458335"
       d="m 98.341503,147.14051 c -0.494463,-0.32743 -1.128847,-1.08961 -1.409741,-1.69374 -0.500478,-1.07641 -0.728565,-1.21176 -11.377084,-6.75146 L 74.688311,133.04229 V 112.05654 91.070796 l 12.700001,-6.719808 c 6.985,-3.695894 12.883118,-6.692282 13.106928,-6.658639 0.22381,0.03364 6.14717,3.09315 13.16302,6.798904 l 12.7561,6.737735 v 20.957172 20.95717 l -11.14279,5.6426 c -9.75653,4.94061 -11.18551,5.74135 -11.48627,6.43635 -0.97597,2.25532 -3.55978,3.16578 -5.443797,1.91823 z m 1.33481,-12.71204 c -0.46726,-1.77032 -2.562285,-3.55976 -6.273453,-5.35841 -1.707272,-0.82744 -5.187725,-2.66248 -7.73434,-4.07788 -5.71404,-3.17582 -10.186346,-5.56678 -10.412712,-5.56678 -0.09384,0 -0.170622,2.4827 -0.170622,5.51712 v 5.51712 l 12.369272,6.50676 12.369275,6.50677 0.0731,-3.96613 c 0.0426,-2.3126 -0.0493,-4.42993 -0.22052,-5.07857 z m 18.403667,0.0155 7.67292,-4.06392 -0.0909,-5.41115 c -0.05,-2.97614 -0.13236,-5.45386 -0.18309,-5.50605 -0.11629,-0.11965 -4.73315,2.31551 -10.59165,5.58656 -2.48358,1.38669 -5.5792,3.05154 -6.87917,3.69968 -2.74479,1.36849 -5.30185,3.09668 -6.09165,4.11703 -0.9712,1.25473 -1.16671,2.35455 -1.16671,6.56334 v 4.05005 l 4.82865,-2.48581 c 2.65575,-1.3672 8.28146,-4.31458 12.50156,-6.54973 z M 89.974978,120.65979 c -0.139331,-0.72886 -0.903475,-1.21853 -3.322327,-2.12898 -1.794555,-0.67547 -4.90237,-1.36078 -5.131575,-1.13157 -0.06806,0.0681 0.15266,0.55031 0.490493,1.07168 0.472903,0.72981 0.792595,0.94868 1.389341,0.95121 0.426304,0.002 1.497866,0.234 2.38125,0.516 0.883383,0.282 2.141933,0.6837 2.796777,0.89268 0.654844,0.20898 1.263411,0.39497 1.352372,0.41331 0.08896,0.0184 0.108612,-0.2446 0.04367,-0.58433 z m 24.357342,-0.85191 c 1.04257,-0.35385 2.27442,-0.6442 2.73746,-0.64522 0.62607,-0.001 0.98214,-0.19882 1.38906,-0.77029 0.30095,-0.42265 0.54718,-0.83936 0.54718,-0.92604 0,-0.30287 -1.28058,-0.1536 -2.94869,0.34372 -0.92483,0.27572 -2.54472,0.75539 -3.59975,1.06594 -1.7403,0.51227 -1.91822,0.62802 -1.91822,1.24793 0,0.64071 0.0591,0.6722 0.94869,0.50531 0.52178,-0.0979 1.8017,-0.46749 2.84427,-0.82135 z m -24.363592,-2.64251 c 0.1071,-0.56026 -0.06453,-0.80539 -1.028019,-1.46829 -1.170263,-0.80516 -5.344759,-2.84811 -8.645036,-4.23079 -2.042663,-0.85578 -1.953654,-0.99489 -1.050784,1.64219 0.407201,1.18934 0.460555,1.23261 1.899945,1.54099 1.700017,0.36421 7.04658,2.29889 7.823703,2.83105 0.723873,0.49569 0.852963,0.45502 1.000191,-0.31515 z m 24.142502,-1.02172 c 1.60073,-0.65915 3.72989,-1.36981 4.73147,-1.57924 1.00158,-0.20943 1.92476,-0.54083 2.05152,-0.73646 0.30112,-0.46469 1.04835,-2.93128 0.92529,-3.05433 -0.25166,-0.25167 -4.34297,1.54697 -7.45684,3.27822 -1.91319,1.06369 -3.62837,1.93398 -3.81152,1.93398 -0.19494,0 -0.26641,0.1735 -0.17239,0.41851 0.0883,0.23019 0.1606,0.60011 0.1606,0.82206 0,0.2232 0.1478,0.33923 0.33072,0.25964 0.18191,-0.0791 1.64042,-0.68322 3.24115,-1.34238 z m -23.183756,-1.94879 c 0.208004,-0.38866 -0.376613,-1.073 -3.44692,-4.0349 -2.033575,-1.96177 -4.930858,-4.75748 -6.438408,-6.21268 l -2.741,-2.64584 -0.14986,0.92604 c -0.08242,0.50933 -0.151169,1.60388 -0.152771,2.43235 l -0.0029,1.50631 3.505729,2.17039 c 1.928152,1.19371 4.27384,2.77807 5.212642,3.52078 2.563611,2.02814 3.564489,2.76741 3.773883,2.78747 0.104021,0.01 0.301848,-0.1925 0.439617,-0.44992 z m 19.979276,-0.48924 c 0.56067,-0.38098 1.93793,-1.43428 3.06059,-2.34065 1.12266,-0.90637 3.48546,-2.46989 5.25066,-3.47449 l 3.20947,-1.82654 -0.0222,-1.71979 c -0.0453,-3.50278 0.0278,-3.48936 -3.13908,-0.57569 -1.53041,1.40804 -3.19728,2.84155 -3.70416,3.18558 -0.50688,0.34403 -1.39785,1.2258 -1.97993,1.95949 -0.58209,0.73368 -1.80161,2.08183 -2.71006,2.99588 -1.10409,1.1109 -1.59911,1.799 -1.49305,2.07541 0.21192,0.55224 0.33817,0.52917 1.52779,-0.2792 z M 92.950528,111.4691 c 0.100778,-0.31752 -0.12455,-0.91269 -0.617013,-1.62975 -0.426673,-0.62127 -1.460376,-2.49571 -2.297118,-4.16542 -0.836742,-1.66972 -2.085677,-3.87238 -2.775412,-4.89481 -0.689736,-1.02241 -1.641707,-2.63284 -2.115492,-3.578726 -0.473785,-0.945885 -1.279447,-2.472694 -1.790361,-3.392909 l -0.928934,-1.673119 -0.733511,1.107977 c -0.403431,0.609388 -0.939519,1.564821 -1.191306,2.123186 l -0.457795,1.015208 1.952571,2.724933 c 1.073914,1.49871 2.563627,3.39326 3.310472,4.2101 0.746845,0.81684 2.107238,2.60277 3.023094,3.96875 3.359827,5.01109 4.135528,5.71356 4.620805,4.18458 z m 16.189772,-0.48544 c 0.46745,-0.56313 1.58235,-2.19809 2.47755,-3.63325 0.89521,-1.43516 2.31092,-3.32376 3.14604,-4.19688 0.83512,-0.87313 2.44032,-2.79957 3.56711,-4.280957 l 2.04873,-2.693447 -0.82684,-1.539887 c -0.45475,-0.846937 -1.03748,-1.814727 -1.29495,-2.150643 l -0.46812,-0.610757 -1.9446,3.481074 c -1.06954,1.91459 -2.5055,4.340277 -3.19104,5.390417 -0.68554,1.05014 -1.8202,3.21131 -2.52146,4.80261 -0.70127,1.59129 -1.68442,3.46387 -2.1848,4.16129 -0.87761,1.22323 -0.8932,1.28635 -0.44107,1.78594 0.25777,0.28484 0.53953,0.51575 0.62612,0.51313 0.0866,-0.003 0.53988,-0.46551 1.00733,-1.02864 z m -13.29777,-1.39031 c 0.792097,-0.36091 0.784019,-0.30418 0.279921,-1.966 -0.216693,-0.71435 -0.700098,-2.90617 -1.074234,-4.8707 -0.374137,-1.96454 -0.925989,-4.524381 -1.226339,-5.688547 -0.30035,-1.164167 -0.992198,-4.234498 -1.537438,-6.822957 -0.545241,-2.58846 -1.055186,-4.770129 -1.133212,-4.848156 -0.170852,-0.170851 -1.419965,0.453721 -3.289586,1.644836 l -1.378754,0.878389 1.567276,4.497027 c 0.862002,2.473364 1.881188,5.116503 2.264859,5.873642 0.383671,0.757138 1.335862,3.198166 2.11598,5.424496 1.313215,3.7477 2.346915,6.18502 2.623153,6.18502 0.06295,0 0.417725,-0.13817 0.788374,-0.30705 z m 10.03211,-0.94972 c 0.34973,-0.69122 1.11829,-2.76698 1.70791,-4.61278 0.58962,-1.84581 2.21048,-6.216871 3.60192,-9.713464 1.39144,-3.496593 2.52989,-6.418556 2.52989,-6.493252 0,-0.191287 -4.0317,-2.530128 -4.3601,-2.52935 -0.14856,3.44e-4 -0.73788,2.113712 -1.30959,4.696354 -0.57171,2.582643 -1.26023,5.41009 -1.53003,6.283215 -0.26981,0.873125 -0.89738,3.611562 -1.3946,6.085427 -0.49723,2.47385 -1.07312,4.97416 -1.27976,5.55625 l -0.37572,1.05833 0.82542,0.45193 c 0.45398,0.24856 0.85318,0.45692 0.8871,0.46302 0.0339,0.006 0.34784,-0.55446 0.69756,-1.24568 z m -4.48894,-1.32292 c 0.0988,-0.83674 0.29363,-3.70273 0.43299,-6.36886 0.13936,-2.666133 0.31733,-5.106914 0.39549,-5.423963 0.16503,-0.669403 0.89746,-11.913078 0.78403,-12.035923 -0.20672,-0.223905 -3.153807,-0.361525 -4.402637,-0.20559 l -1.417677,0.17702 0.187547,4.421104 c 0.10315,2.431608 0.321252,5.492667 0.484666,6.802355 0.163415,1.309687 0.397114,4.28625 0.519344,6.614587 0.12222,2.32834 0.30645,4.97748 0.4094,5.88698 l 0.18718,1.65365 h 1.120027 1.12002 z"
       id="path896"
       inkscape:connector-curvature="0" />
  </g>
</svg>
